<?xml version="1.0" standalone="no"?><!DOCTYPE svg PUBLIC "-//W3C//DTD SVG 1.1//EN" "http://www.w3.org/Graphics/SVG/1.1/DTD/svg11.dtd"><svg t="1593402510682" class="icon" viewBox="0 0 1024 1024" version="1.1" xmlns="http://www.w3.org/2000/svg" p-id="874" xmlns:xlink="http://www.w3.org/1999/xlink" width="200" height="200"><defs><style type="text/css"></style></defs><path d="M853.333333 85.333333a64 64 0 0 1 64 64v725.333334a64 64 0 0 1-64 64H256a64 64 0 0 1-64-64v-149.333334H160a32 32 0 0 1 0-64H192v-106.666666H160a32 32 0 0 1 0-64H192v-106.666667H160a32 32 0 0 1 0-64H192V149.333333a64 64 0 0 1 64-64h597.333333z m-21.333333 64H277.333333a21.333333 21.333333 0 0 0-21.184 18.837334L256 170.666667v682.666666a21.333333 21.333333 0 0 0 18.837333 21.184L277.333333 874.666667h554.666667a21.333333 21.333333 0 0 0 21.184-18.837334L853.333333 853.333333V170.666667a21.333333 21.333333 0 0 0-21.333333-21.333334z m-160 405.333334a96 96 0 0 1 96 96V725.333333a21.333333 21.333333 0 0 1-21.333333 21.333334H362.666667a21.333333 21.333333 0 0 1-21.333334-21.333334v-74.666666a96 96 0 0 1 96-96h234.666667zM554.666667 256a85.333333 85.333333 0 0 1 85.333333 85.333333v85.333334a85.333333 85.333333 0 1 1-170.666667 0v-85.333334a85.333333 85.333333 0 0 1 85.333334-85.333333z" fill="#000000" p-id="875"></path></svg>