<?xml version="1.0" standalone="no"?><!DOCTYPE svg PUBLIC "-//W3C//DTD SVG 1.1//EN" "http://www.w3.org/Graphics/SVG/1.1/DTD/svg11.dtd"><svg t="1594951668396" class="icon" viewBox="0 0 1024 1024" version="1.1" xmlns="http://www.w3.org/2000/svg" p-id="22865" xmlns:xlink="http://www.w3.org/1999/xlink" width="200" height="200"><defs><style type="text/css"></style></defs><path d="M610.426808 825.340388h-197.214815c-7.585185 0-13.725573-6.140388-13.725573-13.725573V280.290653c0-7.585185 6.140388-13.725573 13.725573-13.725574H610.426808c7.585185 0 13.725573 6.140388 13.725573 13.725574v531.324162c0 7.585185-6.140388 13.725573-13.725573 13.725573zM413.211993 277.401058c-1.444797 0-2.889594 1.444797-2.889594 2.889595v531.324162c0 1.444797 1.444797 2.889594 2.889594 2.889594H610.426808c1.444797 0 2.889594-1.444797 2.889594-2.889594V280.290653c0-1.444797-1.444797-2.889594-2.889594-2.889595h-197.214815z"  p-id="22866"></path><path d="M563.1097 402.014815h-99.691005c-2.889594 0-5.417989-2.528395-5.41799-5.41799s2.528395-5.417989 5.41799-5.417989h99.691005c2.889594 0 5.417989 2.528395 5.41799 5.417989s-2.528395 5.417989-5.41799 5.41799zM563.1097 466.669489h-99.691005c-2.889594 0-5.417989-2.528395-5.41799-5.41799s2.528395-5.417989 5.41799-5.417989h99.691005c2.889594 0 5.417989 2.528395 5.41799 5.417989s-2.528395 5.417989-5.41799 5.41799zM563.1097 531.324162h-99.691005c-2.889594 0-5.417989-2.528395-5.41799-5.417989s2.528395-5.417989 5.41799-5.41799h99.691005c2.889594 0 5.417989 2.528395 5.41799 5.41799s-2.528395 5.417989-5.41799 5.417989zM515.070194 712.646208c-26.728748 0-48.400705-21.671958-48.400705-48.400705s21.671958-48.400705 48.400705-48.400706 48.400705 21.671958 48.400705 48.400706-21.671958 48.400705-48.400705 48.400705z m0-85.965432c-20.58836 0-37.564727 16.976367-37.564727 37.564727s16.976367 37.564727 37.564727 37.564726 37.564727-16.976367 37.564727-37.564726c0-20.949559-16.615168-37.564727-37.564727-37.564727zM808.364021 804.02963h-162.539682c-2.889594 0-5.417989-2.528395-5.41799-5.41799s2.528395-5.417989 5.41799-5.417989h162.539682c1.083598 0 2.167196-1.083598 2.167196-2.167196V300.879012c0-1.083598-1.083598-2.167196-2.167196-2.167195h-163.262081c-2.889594 0-5.417989-2.528395-5.417989-5.41799s2.528395-5.417989 5.417989-5.417989h163.262081c7.223986 0 13.003175 5.779189 13.003175 13.003174V791.026455c0 7.223986-5.779189 13.003175-13.003175 13.003175z"  p-id="22867"></path><path d="M765.020106 413.573192h-91.744621c-2.889594 0-5.417989-2.528395-5.417989-5.417989s2.528395-5.417989 5.417989-5.41799h91.744621c2.889594 0 5.417989 2.528395 5.417989 5.41799s-2.528395 5.417989-5.417989 5.417989zM765.020106 473.171076h-91.744621c-2.889594 0-5.417989-2.528395-5.417989-5.41799s2.528395-5.417989 5.417989-5.417989h91.744621c2.889594 0 5.417989 2.528395 5.417989 5.417989s-2.528395 5.417989-5.417989 5.41799zM765.020106 532.768959h-91.744621c-2.889594 0-5.417989-2.528395-5.417989-5.417989s2.528395-5.417989 5.417989-5.417989h91.744621c2.889594 0 5.417989 2.528395 5.417989 5.417989s-2.528395 5.417989-5.417989 5.417989zM379.259259 804.02963H215.635979c-7.223986 0-13.003175-5.779189-13.003175-13.003175V300.879012c0-7.223986 5.779189-13.003175 13.003175-13.003174H379.259259c2.889594 0 5.417989 2.528395 5.41799 5.417989s-2.528395 5.417989-5.41799 5.41799H215.635979c-1.083598 0-2.167196 1.083598-2.167196 2.167195V791.026455c0 1.083598 1.083598 2.167196 2.167196 2.167196H379.259259c2.889594 0 5.417989 2.528395 5.41799 5.417989s-2.528395 5.417989-5.41799 5.41799z"  p-id="22868"></path><path d="M353.975309 413.573192H261.869489c-2.889594 0-5.417989-2.528395-5.41799-5.417989s2.528395-5.417989 5.41799-5.41799H353.975309c2.889594 0 5.417989 2.528395 5.417989 5.41799s-2.528395 5.417989-5.417989 5.417989z"  p-id="22869"></path><path d="M353.975309 473.171076H261.869489c-2.889594 0-5.417989-2.528395-5.41799-5.41799s2.528395-5.417989 5.41799-5.417989H353.975309c2.889594 0 5.417989 2.528395 5.417989 5.417989s-2.528395 5.417989-5.417989 5.41799z"  p-id="22870"></path><path d="M353.975309 532.768959H261.869489c-2.889594 0-5.417989-2.528395-5.41799-5.417989s2.528395-5.417989 5.41799-5.417989H353.975309c2.889594 0 5.417989 2.528395 5.417989 5.417989s-2.528395 5.417989-5.417989 5.417989z"  p-id="22871"></path></svg>