<?xml version="1.0" standalone="no"?><!DOCTYPE svg PUBLIC "-//W3C//DTD SVG 1.1//EN" "http://www.w3.org/Graphics/SVG/1.1/DTD/svg11.dtd"><svg t="1594949394774" class="icon" viewBox="0 0 1024 1024" version="1.1" xmlns="http://www.w3.org/2000/svg" p-id="5081" xmlns:xlink="http://www.w3.org/1999/xlink" width="200" height="200"><defs><style type="text/css"></style></defs><path d="M413.792 354.912h196.384c20.736 0 20.736-39.296 0-39.296h-196.384c-20.736 0-20.736 39.296 0 39.296z m-78.56-196.416c-1.248-9.44 1.504-36.224 39.264-39.296-4.64 0.384 9.024 84.704 78.592 78.592h117.92c56 11.072 74.816-60.992 78.528-78.592 32.352 5.12 37.376 18.368 39.296 39.296-0.288 20.096 0.16 352.768 0 353.504 0 30.432-8.352 39.264-39.296 39.264h-234.528c4 12.512 6.624 25.568 7.04 39.328h266.784c31.008 0 39.264-39.328 39.264-39.328V119.2c-4.896-42.656-39.264-39.264-39.264-39.264h-117.824V40.672C570.176 22.08 560.256 0.544 531.68 1.344c-15.36 0.48-20.736 0.832-39.264 0-40.704-1.696-39.328 39.328-39.328 39.328v39.296h-117.824s-39.296 8.896-39.296 39.264v333.696a143.36 143.36 0 0 1 39.296 9.856V158.496z m157.152-78.56h39.264v39.264h-39.264V79.936z m-78.592 196.384h196.384c20.736 0 20.736-39.264 0-39.264h-196.384c-20.736 0-20.736 39.264 0 39.264z m274.976 628.48H335.232v78.56H295.936v39.328h432.096V983.36h-39.264v-78.56z m256.8-708.224H807.36v77.6l77.856 2.176c15.488 0 40.512 10.432 40.512 25.92V720c0 15.456-24.992 27.712-40.512 27.712l-758.464 0.352a28.128 28.128 0 0 1-28.128-28.064V302.272a28.16 28.16 0 0 1 28.128-28.096l90.656 2.112V197.792L77.12 196.576c-31.008 0-56.128 9.44-56.128 40.48v589.248c4.896 11.392 8.224 39.264 39.264 39.264h903.52c18.784 2.464 39.264-10.72 39.264-39.264V237.056c-0.032-31.04-26.464-40.48-57.472-40.48zM413.792 512h196.384c19.2 0 19.2-39.264 0-39.264h-196.384c-19.136 0-19.136 39.264 0 39.264z m196.384-117.824h-196.384c-19.168 0-19.168 39.296 0 39.296h196.384c19.2 0 19.2-39.296 0-39.296z" p-id="5082" ></path><path d="M333.056 527.328c-4.16 39.808-6.24 65.344-6.24 76.672 0 13.504 3.776 20.256 11.264 20.256 7.712 0 14.016-4.96 18.976-14.912 4.928-10.016 7.424-22.72 7.424-38.272 0-21.952-6.976-39.904-20.992-53.92-14.016-13.984-33.472-20.992-58.368-20.992-26.368 0-48.256 9.248-65.76 27.744-17.44 18.528-26.176 40.992-26.176 67.392 0 26.016 7.872 46.56 23.584 61.472s37.12 22.4 64.192 22.4a133.44 133.44 0 0 0 56.864-11.904v25.216c-15.584 6.752-35.744 10.112-60.608 10.112-33.888 0-61.408-9.792-82.56-29.312-21.056-19.584-31.616-45.728-31.616-78.368 0-33.472 11.296-61.6 33.792-84.224 22.432-22.656 51.424-34.016 86.88-34.016 33.088 0 59.84 8.928 80.192 26.784 20.352 17.856 30.528 41.216 30.528 70.048 0 23.616-6.176 42.624-18.528 56.928-12.32 14.336-27.52 21.536-45.632 21.536-8.864 0-16.192-2.464-22.016-7.36a25.856 25.856 0 0 1-9.28-19.808h-0.896c-6.368 18.112-18.144 27.2-35.424 27.2-12.768 0-22.976-4.64-30.688-13.856-7.648-9.248-11.52-21.984-11.52-38.24 0-20.96 5.344-38.048 16.032-51.328 10.72-13.216 23.808-19.808 39.232-19.808 13.92 0 22.592 5.504 25.984 16.48h0.64c0.224-2.208 0.384-4.512 0.672-6.784 0.224-2.272 0.48-4.672 0.608-7.136h29.44z m-82.112 68.48c0 8.928 1.728 15.968 5.248 21.056a16.704 16.704 0 0 0 14.496 7.744c8.96 0 15.968-4.8 21.12-14.368 5.152-9.632 7.712-22.304 7.712-38.048 0-7.712-1.792-13.728-5.344-17.984a17.408 17.408 0 0 0-14.176-6.368c-8.384 0-15.328 4.704-20.864 14.112-5.472 9.376-8.192 20.704-8.192 33.856z" p-id="5083" ></path></svg>