<?xml version="1.0" standalone="no"?><!DOCTYPE svg PUBLIC "-//W3C//DTD SVG 1.1//EN" "http://www.w3.org/Graphics/SVG/1.1/DTD/svg11.dtd"><svg t="1594951142511" class="icon" viewBox="0 0 1024 1024" version="1.1" xmlns="http://www.w3.org/2000/svg" p-id="18157" xmlns:xlink="http://www.w3.org/1999/xlink" width="200" height="200"><defs><style type="text/css"></style></defs><path d="M682.666667 426.666667c-10.24 0-17.066667-6.826667-17.066667-17.066667V102.4c0-10.24 6.826667-17.066667 17.066667-17.066667s17.066667 6.826667 17.066666 17.066667v307.2c0 10.24-6.826667 17.066667-17.066666 17.066667zM921.6 426.666667c-10.24 0-17.066667-6.826667-17.066667-17.066667V290.133333H853.333333c-6.826667 0-23.893333-3.413333-23.893333-34.133333 0-23.893333 10.24-64.853333 23.893333-98.986667 13.653333-30.72 37.546667-71.68 68.266667-71.68 10.24 0 17.066667 6.826667 17.066667 17.066667v307.2c0 10.24-6.826667 17.066667-17.066667 17.066667z m-58.026667-170.666667h40.96V133.12s0 3.413333-3.413333 3.413333c-23.893333 34.133333-37.546667 98.986667-37.546667 119.466667zM846.506667 938.666667C433.493333 938.666667 85.333333 590.506667 85.333333 180.906667c0-34.133333 27.306667-61.44 61.44-61.44h153.6c34.133333 0 61.44 27.306667 61.44 61.44 0 40.96 10.24 95.573333 30.72 157.013333 6.826667 20.48 0 44.373333-13.653333 61.44l-81.92 85.333333c58.026667 105.813333 126.293333 174.08 232.106667 232.106667l95.573333-68.266667c13.653333-13.653333 37.546667-20.48 58.026667-13.653333 44.373333 13.653333 112.64 30.72 163.84 30.72 34.133333 0 61.44 27.306667 61.44 61.44v153.6c-3.413333 30.72-30.72 58.026667-61.44 58.026667zM146.773333 153.6c-13.653333 0-27.306667 10.24-27.306666 27.306667 0 392.533333 331.093333 727.04 727.04 727.04 13.653333 0 27.306667-10.24 27.306666-27.306667v-153.6c0-13.653333-10.24-27.306667-27.306666-27.306667-54.613333 0-126.293333-17.066667-174.08-34.133333-10.24-3.413333-20.48 0-27.306667 6.826667l-105.813333 75.093333c-6.826667 3.413333-13.653333 3.413333-17.066667 0-122.88-64.853333-201.386667-139.946667-262.826667-262.826667-3.413333-6.826667-3.413333-13.653333 3.413334-20.48l88.746666-92.16c6.826667-6.826667 10.24-17.066667 6.826667-27.306666-20.48-64.853333-34.133333-122.88-34.133333-167.253334 0-13.653333-10.24-27.306667-27.306667-27.306666 0 3.413333-150.186667 3.413333-150.186667 3.413333z" fill="" p-id="18158"></path><path d="M682.666667 256c-47.786667 0-85.333333-37.546667-85.333334-85.333333V102.4c0-10.24 6.826667-17.066667 17.066667-17.066667s17.066667 6.826667 17.066667 17.066667v68.266667c0 27.306667 23.893333 51.2 51.2 51.2s51.2-23.893333 51.2-51.2V102.4c0-10.24 6.826667-17.066667 17.066666-17.066667s17.066667 6.826667 17.066667 17.066667v68.266667c0 47.786667-37.546667 85.333333-85.333333 85.333333z" fill="" p-id="18159"></path></svg>