<?xml version="1.0" standalone="no"?><!DOCTYPE svg PUBLIC "-//W3C//DTD SVG 1.1//EN" "http://www.w3.org/Graphics/SVG/1.1/DTD/svg11.dtd"><svg t="1594952886507" class="icon" viewBox="0 0 1024 1024" version="1.1" xmlns="http://www.w3.org/2000/svg" p-id="11091" xmlns:xlink="http://www.w3.org/1999/xlink" width="200" height="200"><defs><style type="text/css"></style></defs><path d="M684.305067 650.171733c-125.166933 125.1328-328.772267 125.1328-453.905067 0-125.166933-125.166933-125.166933-328.772267 0-453.905066 125.1328-125.166933 328.738133-125.166933 453.905067 0 125.1328 125.1328 125.1328 328.738133 0 453.905066zM287.8464 253.713067a239.957333 239.957333 0 0 0 0 339.012266 239.957333 239.957333 0 0 0 339.012267 0 239.957333 239.957333 0 0 0 0-339.012266 239.957333 239.957333 0 0 0-339.012267 0z m443.392 447.044266l-13.7216-13.550933c50.176-58.197333-91.3408 83.319467-35.0208 35.054933l13.653333 13.585067v39.2192l111.479467 111.104 73.8304-73.864533-110.933333-111.5136-39.3216-0.034134z"  p-id="11092"></path><path d="M558.08 309.111467l-136.874667 136.9088-63.931733-63.8976-45.636267 45.6704 109.568 109.533866 181.828267-181.8624-44.919467-46.353066z"  p-id="11093"></path></svg>