<?xml version="1.0" standalone="no"?><!DOCTYPE svg PUBLIC "-//W3C//DTD SVG 1.1//EN" "http://www.w3.org/Graphics/SVG/1.1/DTD/svg11.dtd"><svg t="1594950777616" class="icon" viewBox="0 0 1024 1024" version="1.1" xmlns="http://www.w3.org/2000/svg" p-id="12473" xmlns:xlink="http://www.w3.org/1999/xlink" width="200" height="200"><defs><style type="text/css"></style></defs><path d="M512 797.767442a53.581395 53.581395 0 1 0 53.581395 53.581395 53.581395 53.581395 0 0 0-53.581395-53.581395zM223.255814 797.767442a53.581395 53.581395 0 1 0 53.581395 53.581395 53.581395 53.581395 0 0 0-53.581395-53.581395z"  p-id="12474"></path><path d="M934.697674 0H89.302326A59.534884 59.534884 0 0 0 29.767442 59.534884v904.930232a59.534884 59.534884 0 0 0 59.534884 59.534884h845.395348a59.534884 59.534884 0 0 0 59.534884-59.534884V59.534884a59.534884 59.534884 0 0 0-59.534884-59.534884zM207.538605 98.232558h608.92279a67.869767 67.869767 0 0 1 67.631628 67.631628l-40.60279 460.026047a67.869767 67.869767 0 0 1-67.631628 67.631627H248.141395a67.869767 67.869767 0 0 1-67.631628-67.631627L139.906977 165.864186A67.869767 67.869767 0 0 1 207.538605 98.232558zM223.255814 940.651163a89.302326 89.302326 0 1 1 89.302326-89.302326 89.302326 89.302326 0 0 1-89.302326 89.302326z m288.744186 0a89.302326 89.302326 0 1 1 89.302326-89.302326 89.302326 89.302326 0 0 1-89.302326 89.302326z m288.744186 0a89.302326 89.302326 0 1 1 89.302326-89.302326 89.302326 89.302326 0 0 1-89.302326 89.302326z"  p-id="12475"></path><path d="M800.744186 797.767442a53.581395 53.581395 0 1 0 53.581395 53.581395 53.581395 53.581395 0 0 0-53.581395-53.581395zM478.362791 604.27907a235.222326 235.222326 0 0 1-23.813954-30.481861 172.651163 172.651163 0 0 0 29.767442 7.977675c-86.623256-95.255814-0.952558-154.790698 22.266047-168.483721a59.534884 59.534884 0 0 0 0.773953 17.324651c0.416744 14.288372 7.322791 35.72093 34.530233 61.55907 36.673488 35.125581-3.631628 89.302326-3.631628 89.302325a68.167442 68.167442 0 0 0 19.765581-3.214883 140.740465 140.740465 0 0 1-14.228837 25.659534c45.365581 0.535814 141.157209-59.177674 141.157209-140.383255S615.888372 329.227907 615.888372 329.227907A114.723721 114.723721 0 0 1 584.037209 363.162791c33.339535-132.941395-103.114419-175.627907-103.114418-175.627907 40.305116 147.289302-141.871628 158.660465-141.871628 277.373023s139.311628 139.371163 139.311628 139.371163z"  p-id="12476"></path></svg>