<?xml version="1.0" standalone="no"?><!DOCTYPE svg PUBLIC "-//W3C//DTD SVG 1.1//EN" "http://www.w3.org/Graphics/SVG/1.1/DTD/svg11.dtd"><svg t="1596183556282" class="icon" viewBox="0 0 1024 1024" version="1.1" xmlns="http://www.w3.org/2000/svg" p-id="3239" xmlns:xlink="http://www.w3.org/1999/xlink" width="200" height="200"><defs><style type="text/css"></style></defs><path d="M827 894H197a62.07 62.07 0 0 1-62-62V202a62.07 62.07 0 0 1 62-62 12 12 0 0 1 0 24 38 38 0 0 0-38 38v630a38 38 0 0 0 38 38h630a38 38 0 0 0 38-38V333a38 38 0 0 0-38-38H502a12 12 0 0 1 0-24h325a62.07 62.07 0 0 1 62 62v499a62.07 62.07 0 0 1-62 62z" p-id="3240" ></path><path d="M197 140h253a62.07 62.07 0 0 1 62 62v80.9a12 12 0 0 1-24 0V202a38 38 0 0 0-38-38H197a38 38 0 0 0-38 38v48.9a12 12 0 0 1-24 0V202a62.07 62.07 0 0 1 62-62zM877 395H147a12 12 0 0 1 0-24h730a12 12 0 0 1 0 24z" p-id="3241" ></path></svg>