<?xml version="1.0" standalone="no"?><!DOCTYPE svg PUBLIC "-//W3C//DTD SVG 1.1//EN" "http://www.w3.org/Graphics/SVG/1.1/DTD/svg11.dtd"><svg t="1596183708887" class="icon" viewBox="0 0 1024 1024" version="1.1" xmlns="http://www.w3.org/2000/svg" p-id="3569" width="64" height="64" xmlns:xlink="http://www.w3.org/1999/xlink"><defs><style type="text/css"></style></defs><path d="M844.8 307.2V128c0-15.36-5.12-23.04-20.48-28.16-7.68-2.56-17.92 0-30.72 2.56L128 307.2v563.2c0 28.16 23.04 51.2 51.2 51.2h665.6c28.16 0 51.2-23.04 51.2-51.2V358.4c0-28.16-23.04-51.2-51.2-51.2z m-51.2-153.6v153.6H294.4L793.6 153.6z m51.2 486.4v25.6h-102.4v-25.6-25.6h102.4v25.6z m0-76.8h-128c-15.36 0-25.6 10.24-25.6 25.6v102.4c0 15.36 10.24 25.6 25.6 25.6h128v128c0 15.36-10.24 25.6-25.6 25.6H204.8c-15.36 0-25.6-10.24-25.6-25.6V358.4h640c15.36 0 25.6 10.24 25.6 25.6v179.2z" p-id="3570" ></path></svg>