<?xml version="1.0" standalone="no"?><!DOCTYPE svg PUBLIC "-//W3C//DTD SVG 1.1//EN" "http://www.w3.org/Graphics/SVG/1.1/DTD/svg11.dtd"><svg t="1641364946688" class="icon" viewBox="0 0 1024 1024" version="1.1" xmlns="http://www.w3.org/2000/svg" p-id="2129" xmlns:xlink="http://www.w3.org/1999/xlink" width="200" height="200"><defs><style type="text/css"></style></defs><path d="M942.08 769.137778L587.093333 179.768889c-43.235556-77.368889-113.777778-77.368889-157.013333 0L75.093333 769.137778c-43.235556 77.368889-6.826667 138.808889 79.644445 138.808889H864.711111c84.195556 0 120.604444-63.715556 77.368889-138.808889zM475.591111 357.262222c0-18.204444 15.928889-34.133333 34.133333-34.133333s34.133333 15.928889 34.133334 34.133333v238.933334c0 18.204444-15.928889 34.133333-34.133334 34.133333s-34.133333-15.928889-34.133333-34.133333V357.262222z m31.857778 418.702222c-27.306667 0-47.786667-22.755556-47.786667-47.786666s22.755556-47.786667 47.786667-47.786667 47.786667 22.755556 47.786667 47.786667-20.48 47.786667-47.786667 47.786666z" fill="#f4ea2a" p-id="2130"></path></svg>