<?xml version="1.0" standalone="no"?><!DOCTYPE svg PUBLIC "-//W3C//DTD SVG 1.1//EN" "http://www.w3.org/Graphics/SVG/1.1/DTD/svg11.dtd"><svg t="1594949449853" class="icon" viewBox="0 0 1024 1024" version="1.1" xmlns="http://www.w3.org/2000/svg" p-id="5320" xmlns:xlink="http://www.w3.org/1999/xlink" width="200" height="200"><defs><style type="text/css"></style></defs><path d="M904.025023 128.051421 120.741433 128.051421c-29.514197 0-53.526077 24.010857-53.526077 53.525054L67.215356 680.644955c0 29.515221 24.01188 53.527101 53.526077 53.527101l366.029464 0 0 111.185288-109.729124 0c-14.145162 0-25.611308 11.466146-25.611308 25.611308s11.467169 25.611308 25.611308 25.611308l270.681886 0c14.145162 0 25.611308-11.466146 25.611308-25.611308s-11.466146-25.611308-25.611308-25.611308l-109.729124 0L537.994536 734.171032l366.030487 0c29.514197 0 53.525054-24.01188 53.525054-53.527101L957.550077 181.576475C957.549054 152.062278 933.538197 128.051421 904.025023 128.051421zM906.326439 680.644955c0 1.269923-1.032516 2.303462-2.301416 2.303462L120.741433 682.948417c-1.269923 0-2.302439-1.033539-2.302439-2.303462l0-54.746882 787.887444 0L906.326439 680.644955zM906.326439 574.674435 118.437971 574.674435 118.437971 181.576475c0-1.2689 1.033539-2.301416 2.302439-2.301416l783.28359 0c1.2689 0 2.301416 1.032516 2.301416 2.301416L906.325415 574.674435zM527.236518 209.103412 509.139348 209.103412l0 170.462347 160.350035 0 1.301645-16.875343c0.184195-2.869351 0.38067-6.222725 0.38067-9.715269C671.172721 273.643334 606.603123 209.103412 527.236518 209.103412zM545.336758 343.354022l0-96.554056c48.106648 8.054443 84.914972 47.62774 89.218998 96.554056L545.336758 343.354022zM496.677525 258.380722l-18.098193 0c-79.351256 0-143.909597 64.563458-143.909597 143.921877 0 79.329766 64.557318 143.869688 143.909597 143.869688 75.480088 0 138.498354-58.93732 143.497205-134.182049l1.471514-19.34458L496.677525 392.645658 496.677525 258.380722zM582.968843 428.830789c-11.897981 47.148833-54.496172 81.158415-104.390535 81.158415-59.385529 0-107.699907-48.308239-107.699907-107.685581 0-53.29788 38.397518-97.629551 89.600691-106.231463l0 132.75863L582.968843 428.830789z" p-id="5321" ></path></svg>