<?xml version="1.0" standalone="no"?><!DOCTYPE svg PUBLIC "-//W3C//DTD SVG 1.1//EN" "http://www.w3.org/Graphics/SVG/1.1/DTD/svg11.dtd"><svg t="1594952306045" class="icon" viewBox="0 0 1024 1024" version="1.1" xmlns="http://www.w3.org/2000/svg" p-id="4079" xmlns:xlink="http://www.w3.org/1999/xlink" width="200" height="200"><defs><style type="text/css"></style></defs><path d="M511.131213 105.299231c-247.079328 0-447.37105 163.902954-447.37105 366.030487 0 99.163487 48.374754 188.963723 126.617769 254.863618l-45.277206 192.507432 240.525052-96.184643c39.856753 9.481955 81.897242 14.84408 125.506459 14.84408 247.078305 0 447.37105-163.851788 447.37105-366.030487C958.502263 269.201162 758.209518 105.299231 511.131213 105.299231M511.131213 796.690948c-38.762839 0-77.806063-4.626367-116.052133-13.762445-3.120061-0.733711-6.296403-1.110287-9.454326-1.110287-5.143137 0-10.285251 0.972141-15.092743 2.918469l-167.922501 67.170842 27.365254-116.400057c3.536546-14.923898-1.666966-30.541597-13.384845-40.402175-72.323189-60.905138-112.159476-140.399657-112.159476-223.774553 0-179.391716 182.459588-325.361229 406.700769-325.361229 224.260623 0 406.700769 145.969513 406.700769 325.361229C917.831982 650.731668 735.391836 796.690948 511.131213 796.690948" p-id="4080" ></path><path d="M663.449317 383.915833l-302.898635 0c-13.226233 0-24.047696-10.821463-24.047696-24.047696l0 0c0-13.226233 10.821463-24.047696 24.047696-24.047696l302.898635 0c13.226233 0 24.047696 10.821463 24.047696 24.047696l0 0C687.497013 373.09437 676.67555 383.915833 663.449317 383.915833z" p-id="4081" ></path><path d="M663.449317 637.69577l-302.898635 0c-13.226233 0-24.047696-10.821463-24.047696-24.047696l0 0c0-13.226233 10.821463-24.047696 24.047696-24.047696l302.898635 0c13.226233 0 24.047696 10.821463 24.047696 24.047696l0 0C687.497013 626.874307 676.67555 637.69577 663.449317 637.69577z" p-id="4082" ></path><path d="M788.292674 512l-552.585347 0c-13.226233 0-24.047696-10.821463-24.047696-24.047696l0 0c0-13.226233 10.821463-24.047696 24.047696-24.047696l552.585347 0c13.226233 0 24.047696 10.821463 24.047696 24.047696l0 0C812.340369 501.178537 801.518906 512 788.292674 512z" p-id="4083" ></path></svg>