<?xml version="1.0" standalone="no"?><!DOCTYPE svg PUBLIC "-//W3C//DTD SVG 1.1//EN" "http://www.w3.org/Graphics/SVG/1.1/DTD/svg11.dtd"><svg t="1594952731812" class="icon" viewBox="0 0 1024 1024" version="1.1" xmlns="http://www.w3.org/2000/svg" p-id="8520" xmlns:xlink="http://www.w3.org/1999/xlink" width="200" height="200"><defs><style type="text/css"></style></defs><path d="M1012 877.714286q0 30.285714-21.142857 51.428571l-61.142857 61.714286q-22.285714 21.142857-52 21.142857-30.285714 0-51.428572-21.142857l-207.428571-208q-21.714286-20.571429-21.714286-51.428572 0-30.285714 24.571429-54.857142L475.428571 530.285714l-72 72q-8 8-19.428571 8t-19.428571-8q1.142857 1.142857 7.142857 6.857143t7.142857 7.428572 5.714286 6.571428 5.714285 7.714286 3.428572 7.714286 3.142857 9.428571 0.857143 10.285714q0 21.714286-16 38.857143-1.714286 1.714286-9.428572 10.285714t-10.857143 11.714286T350.857143 728.571429t-12.571429 8.857142-12.571428 5.142858-14.857143 2.571428q-22.857143 0-38.857143-16L38.857143 496q-16-16-16-38.857143 0-7.428571 2.571428-14.857143t5.142858-12.571428T39.428571 417.142857t9.428572-10.571428 11.714286-10.857143 10.285714-9.428572q17.142857-16 38.857143-16 5.714286 0 10.285714 0.857143t9.428571 3.142857 7.714286 3.428572 7.714286 5.714285 6.571428 5.714286 7.428572 7.142857 6.857143 7.142857q-8-8-8-19.428571t8-19.428571l198.857143-198.857143q8-8 19.428571-8t19.428571 8q-1.142857-1.142857-7.142857-6.857143T389.142857 151.428571t-5.714286-6.571428-5.714285-7.714286-3.428572-7.714286-3.142857-9.428571-0.857143-10.285714q0-21.714286 16-38.857143 1.714286-1.714286 9.428572-10.285714t10.857143-11.714286T417.142857 39.428571t12.571429-8.857142 12.571428-5.142858 14.857143-2.571428q22.857143 0 38.857143 16l233.142857 233.142857q16 16 16 38.857143 0 7.428571-2.571428 14.857143t-5.142858 12.571428-8.857142 12.571429-9.428572 10.571428-11.714286 10.857143-10.285714 9.428572q-17.142857 16-38.857143 16-5.714286 0-10.285714-0.857143t-9.428571-3.142857-7.714286-3.428572-7.714286-5.714285-6.571428-5.714286-7.428572-7.142857-6.857143-7.142857q8 8 8 19.428571t-8 19.428571L530.285714 475.428571l146.285715 146.285715q24.571429-24.571429 54.857142-24.571429 29.714286 0 52 21.142857l207.428572 207.428572q21.142857 22.285714 21.142857 52z" p-id="8521" ></path></svg>