<?xml version="1.0" standalone="no"?><!DOCTYPE svg PUBLIC "-//W3C//DTD SVG 1.1//EN" "http://www.w3.org/Graphics/SVG/1.1/DTD/svg11.dtd"><svg t="1594950242726" class="icon" viewBox="0 0 1024 1024" version="1.1" xmlns="http://www.w3.org/2000/svg" p-id="5510" xmlns:xlink="http://www.w3.org/1999/xlink" width="200" height="200"><defs><style type="text/css"></style></defs><path d="M636.21875001 557.8951389c-1.78125001 0-3.5625 0.1875-5.25000002 0.28125L458.09374999 382.20763889c-12.09375001-12.375-30.1875-15.5625-46.125-10.12499999l30.75-81.18750001c5.0625-13.40625001 1.03125001-33-8.625-42.9375l-56.4375-57.5625c-9.75-9.9375-29.4375-14.4375-43.03124999-9.75L299.09374999 192.7388889c-5.8125 1.96875001-9.5625 5.25-10.68749998 9.28125-1.125 3.9375 0.5625 8.53125001 4.6875 12.65625l36.375 36.9375c12.75 13.125 12 34.59375001-1.6875 47.8125L286.0625 339.64513889c-6.65625001 6.375-15.28125001 9.9375-24.46875001 10.03125001-9.1875 0.09375001-17.71875001-3.375-23.90624999-9.75l-36.1875-36.9375c-4.125-4.21875001-8.625-6-12.65625001-5.0625-4.03125001 0.9375-7.40625001 4.59375001-9.56249998 10.3125L166.0625 343.02013889c-5.0625 13.40625001-1.03125001 33.09375001 8.625 42.93750001l56.53125001 57.5625c9.75 9.9375 29.4375 14.34375001 42.9375 9.75l82.87499998-28.125c-5.90625001 15.65625001-3.1875 33.65625001 8.90625001 45.9375l172.78125001 175.96875c-0.1875 1.6875-0.375 3.46875001-0.46875001 5.15625-1.78125001 51.75 39.09375001 93.46875001 91.40625001 93.09375C681.96875001 744.9263889 725.75 702.7388889 727.53125001 650.9888889c1.78125001-51.75-39.09375001-93.375-91.31250002-93.09375001z m-4.96875001 142.78125c-27.375 0.1875-48.84375001-21.75-47.90625001-48.84375001 0.46875001-13.125 6-25.5 15.75-34.78124999 9.65625001-9.375 22.3125-14.53125001 35.53125001-14.625 27.28125001-0.1875 48.84375001 21.75 47.90625001 48.75-0.9375 27.1875-24 49.3125-51.28125001 49.5z"  p-id="5511"></path><path d="M582.59375001 511.7701389c10.40625001 17.25 29.34375001 27.9375 49.78124999 27.9375h1.40624999c1.125 0 2.25 0 3.375 0.09375h1.6875c20.15625001 0 38.4375-10.03125001 49.03125001-26.8125l11.71874999 4.875c-4.78125001 19.59375001 1.21875001 40.40625001 15.9375 54.65625 1.03125001 0.9375 1.96875001 1.96875001 3 3 10.875 11.34375001 26.25 17.90625001 41.90625001 17.90625 4.5 0 8.90625001-0.5625 13.3125-1.59375l4.21874999 10.40625a57.25124999 57.25124999 0 0 0-28.03124999 49.78125v4.125c-0.5625 20.34375001 9.65625001 39.5625 26.90624999 50.34375l-4.5 10.3125c-4.78125001-1.21875001-9.65625001-1.875-14.53124999-1.875-15.46875001 0-30 6-40.96875001 16.875-1.03125001 0.9375-1.96875001 1.96875001-3 2.90625-15.09375001 13.875-21.65625001 34.59375001-17.25 54.375l-11.8125 4.6875c-10.40625001-17.25-29.34375001-27.9375-49.78124999-27.9375h-1.40625001c-1.125 0-2.25 0-3.375-0.09375h-1.6875c-20.15625001 0-38.4375 10.03125001-49.03124999 26.8125l-11.71875001-4.875c4.78125001-19.59375001-1.21875001-40.40625001-15.9375-54.65625001-1.03125001-0.9375-1.96875001-1.96875001-3-3-10.875-11.34375001-26.25-17.90625001-41.90624999-17.90624999-4.5 0-8.90625001 0.5625-13.3125 1.59374999l-4.21875001-10.40624999c17.53125001-10.40625001 28.21875001-29.34375001 28.03125001-49.78125001v-4.125c0.5625-20.34375001-9.65625001-39.5625-26.90625001-50.34374999l4.5-10.3125c4.78125001 1.21875001 9.65625001 1.875 14.53125001 1.875 15.46875001 0 30-6 40.96874999-16.875 1.03125001-0.9375 1.96875001-1.96875001 3-2.90625001 15.09375001-13.875 21.65625001-34.59375001 17.25-54.375l11.8125-4.6875m7.3125-41.625c-2.53125001 0-5.0625 0.46875001-7.5 1.40625001L542.65625001 487.1138889c-9.375 3.65625001-14.53125001 13.5-12.09375001 23.0625l3.46875001 13.6875c1.78125001 7.03125001-0.5625 14.34375001-5.90625001 19.21875-1.40625001 1.21875001-2.71875001 2.53125001-4.03125001 3.84375-3.9375 3.84375001-9.1875 6-14.53124999 6-1.78125001 0-3.46875001-0.1875-5.25-0.65625001l-13.875-3.65624999c-1.78125001-0.46875001-3.5625-0.65625001-5.25-0.65625001-7.875 0-15.375 4.59375001-18.5625 12.00000001l-16.875 38.53125c-3.9375 9.09375001-0.46875001 19.59375001 8.15625001 24.65624999l12.28124999 7.3125c6.28125001 3.75 9.9375 10.5 9.75 17.625-0.09375001 1.875-0.09375001 3.65625001-0.09375001 5.53125001 0.09375001 7.21875001-3.75 13.875-10.12499998 17.53124999l-12.46875001 7.03125001c-8.71875001 4.875-12.46875001 15.375-8.71875001 24.46874999l15.93750002 38.90625001c3.09375001 7.59375001 10.6875 12.375 18.74999998 12.375 1.59375001 0 3.1875-0.1875 4.87500002-0.5625l13.96874999-3.375c1.59375001-0.375 3.1875-0.5625 4.78125001-0.5625 5.53125001 0 10.96875001 2.25 14.90624999 6.375l3.9375 3.9375c5.25 5.0625 7.3125 12.375 5.4375 19.3125l-3.75 13.59374999c-2.625 9.46875001 2.34375001 19.5 11.53125001 23.34375001l39.37499998 16.5c2.625 1.125 5.25 1.59375001 7.96875001 1.59374999 6.84375001 0 13.5-3.46875001 17.34374999-9.5625l7.5-12c3.65625001-6 10.3125-9.5625 17.4375-9.5625h0.5625c1.5 0 2.90625001 0.09375001 4.40625001 0.09375001h1.40624999c7.3125 0 14.0625 3.75 17.71875001 9.9375l7.21874999 12.1875c3.65625001 6.28125001 10.5 9.9375 17.53125001 9.9375 2.53125001 0 5.0625-0.46875001 7.5-1.40625001l39.75-15.5625c9.375-3.65625001 14.53125001-13.5 12.09375001-23.0625l-3.46875001-13.6875c-1.78125001-7.03125001 0.5625-14.34375001 5.90625001-19.21874999 1.40625001-1.21875001 2.71875001-2.53125001 4.03124999-3.84375001 3.9375-3.84375001 9.1875-6 14.53125001-6 1.78125001 0 3.46875001 0.1875 5.24999998 0.65625001l13.87500002 3.65624999c1.78125001 0.46875001 3.5625 0.65625001 5.24999998 0.65625001 7.875 0 15.375-4.59375001 18.56250002-12l16.87499998-38.53125001c3.9375-9.09375001 0.46875001-19.59375001-8.15624999-24.65624999l-12.28125001-7.3125c-6.28125001-3.75-9.9375-10.5-9.74999998-17.625 0.09375001-1.875 0.09375001-3.65625001 0.09374999-5.53125001-0.09375001-7.21875001 3.75-13.875 10.125-17.53124999l12.46875001-7.03125001c8.71875001-4.875 12.46875001-15.375 8.71874999-24.46874999l-15.9375-38.90625001c-3.09375001-7.59375001-10.6875-12.375-18.75-12.375-1.59375001 0-3.1875 0.1875-4.875 0.5625l-13.96875001 3.375c-1.59375001 0.375-3.1875 0.5625-4.78124999 0.5625-5.53125001 0-10.96875001-2.25-14.90625001-6.375l-3.93749998-3.9375c-5.25-5.0625-7.3125-12.375-5.4375-19.3125l3.75-13.59374999c2.625-9.46875001-2.34375001-19.5-11.53125001-23.34375001l-39.375-16.5c-2.625-1.125-5.25-1.59375001-7.96875001-1.59374999-6.84375001 0-13.5 3.46875001-17.34374999 9.5625l-7.5 12c-3.65625001 6-10.3125 9.5625-17.4375 9.5625h-0.5625c-1.5 0-2.90625001-0.09375001-4.40625001-0.09375001h-1.40624999c-7.3125 0-14.0625-3.75-17.71875001-9.9375l-7.21874999-12.1875c-3.75-6.375-10.5-9.9375-17.53125001-9.9375z"  p-id="5512"></path></svg>