<?xml version="1.0" standalone="no"?><!DOCTYPE svg PUBLIC "-//W3C//DTD SVG 1.1//EN" "http://www.w3.org/Graphics/SVG/1.1/DTD/svg11.dtd"><svg t="1594951081151" class="icon" viewBox="0 0 1024 1024" version="1.1" xmlns="http://www.w3.org/2000/svg" p-id="17904" xmlns:xlink="http://www.w3.org/1999/xlink" width="200" height="200"><defs><style type="text/css"></style></defs><path d="M656.9 225.8H213.2c-11.6 0-21 9.4-21 21s9.4 21 21 21h443.9c11.6 0 21-9.4 21-21 0-11.7-9.5-21.2-21.2-21zM656.9 346H213.2c-11.6 0-21 9.4-21 21s9.4 21 21 21h443.9c11.6 0 21-9.4 21-21s-9.5-21-21.2-21zM656.9 466.3H213.2c-11.6 0-21 9.4-21 21s9.4 21 21 21h443.9c11.6 0 21-9.4 21-21 0-11.7-9.5-21-21.2-21zM656.9 586.5H213.2c-11.6 0-21 9.4-21 21s9.4 21 21 21h443.9c11.6 0 21-9.4 21-21 0-11.5-9.5-21-21.2-21zM957.5 320.6l-14-15.7c-3.7-4-9.9-4.4-14-0.8L709.2 500c-2.7 2.4-19.5 29.7-30.5 47.9-0.1 0.3 0.3 3.4 2.2 5.5 1.8 2 4.8 2.9 5.1 2.7 19.1-9.3 47.8-23.3 50.4-25.7l220.3-195.8c4-3.7 4.4-9.9 0.8-14z" p-id="17905" ></path><path d="M762.2 865.2c0 8.8-7.4 16.2-16.2 16.2L191.3 671.8s5.1 129.6-66.8 129.6c-11.6 0-20.6-11.1-20.6-19.8v-623c0-8.8 7.4-16.2 16.2-16.3h625.8c8.8 0 16.2 7.4 16.2 16.3v285.3l39.9-35.6V158.6c-0.1-31-25.1-56.1-56.1-56.1H120.2c-31 0-56.1 25.1-56.2 56.1v706.8c0.1 31 25.1 56.1 56.1 56.1h625.8c31-0.1 56-25.1 56.1-56.1V478.5l-39.8 35.6v351.1z" p-id="17906" ></path></svg>