<?xml version="1.0" standalone="no"?><!DOCTYPE svg PUBLIC "-//W3C//DTD SVG 1.1//EN" "http://www.w3.org/Graphics/SVG/1.1/DTD/svg11.dtd"><svg t="1594950602201" class="icon" viewBox="0 0 1024 1024" version="1.1" xmlns="http://www.w3.org/2000/svg" p-id="7842" xmlns:xlink="http://www.w3.org/1999/xlink" width="200" height="200"><defs><style type="text/css"></style></defs><path d="M850.368 128.448C760.064 48.768 641.856 0 512 0 405.696 0 306.944 32.448 225.088 87.936l290.048 375.744L850.368 128.448 850.368 128.448zM850.368 128.448" p-id="7843" ></path><path d="M497.664 545.792 174.72 127.488C67.84 221.312 0 358.592 0 512c0 282.752 229.248 512 512 512 282.752 0 512-229.248 512-512 0-8.832-0.896-17.408-1.344-26.112L497.664 545.792 497.664 545.792zM497.664 545.792" p-id="7844" ></path><path d="M1015.68 422.336c-16.704-94.4-59.2-179.712-120.064-248.64L599.424 469.824 1015.68 422.336 1015.68 422.336zM1015.68 422.336" p-id="7845" ></path></svg>