<?xml version="1.0" standalone="no"?><!DOCTYPE svg PUBLIC "-//W3C//DTD SVG 1.1//EN" "http://www.w3.org/Graphics/SVG/1.1/DTD/svg11.dtd"><svg t="1594953047971" class="icon" viewBox="0 0 1024 1024" version="1.1" xmlns="http://www.w3.org/2000/svg" p-id="14371" xmlns:xlink="http://www.w3.org/1999/xlink" width="200" height="200"><defs><style type="text/css"></style></defs><path d="M765.5 317l91 0c7.2 0 13-5.8 13-13l0-13c0-7.2-5.8-13-13-13l-325 0 0-78c0-7.2-5.8-13-13-13l-13 0c-7.2 0-13 5.8-13 13l0 78-325 0c-7.2 0-13 5.8-13 13l0 13c0 7.2 5.8 13 13 13l104 0L142.1 564c-0.4 4.3-0.7 8.6-0.7 13 0 79 64.1 143 143 143 79 0 143-64 143-143 0-6.2 0-13 0-13l-117-247 182 0 0 481-156 0c-7.2 0-13 5.8-13 13l0 13c0 7.2 5.8 13 13 13l351 0c7.2 0 13-5.8 13-13l0-13c0-7.2-5.8-13-13-13l-156 0L531.4 317l195 0L597.2 564c-0.4 4.3-0.7 8.6-0.7 13 0 79 64 143 143 143 79 0 143-64 143-143 0-6.2 0-13 0-13L765.5 317zM284.5 681c-53 0-96.7-39.7-103.1-91l206.2 0C381.2 641.3 337.5 681 284.5 681zM379.7 551 186.2 551 291 357.8 379.7 551zM746 357.8 834.7 551 641.2 551 746 357.8zM739.5 681c-53 0-96.7-39.7-103.1-91l206.2 0C836.2 641.3 792.5 681 739.5 681z" p-id="14372" ></path></svg>