<?xml version="1.0" standalone="no"?><!DOCTYPE svg PUBLIC "-//W3C//DTD SVG 1.1//EN" "http://www.w3.org/Graphics/SVG/1.1/DTD/svg11.dtd"><svg t="1594951799369" class="icon" viewBox="0 0 1024 1024" version="1.1" xmlns="http://www.w3.org/2000/svg" p-id="23943" xmlns:xlink="http://www.w3.org/1999/xlink" width="200" height="200"><defs><style type="text/css"></style></defs><path d="M586.87917 1023.921838H419.847035l-8.910465-107.863522a407.77101 407.77101 0 0 1-126.309748-56.27662l-78.943592 67.37562-117.946416-118.728036 69.329669-82.617205a415.118235 415.118235 0 0 1-50.101824-129.827036L3.94718 587.30906v-168.04824l107.081902-8.988627a412.382566 412.382566 0 0 1 55.651324-127.482177L99.85192 203.221128l118.024578-118.962522 82.070071 70.345775a407.77101 407.77101 0 0 1 128.576445-50.414472L437.042668 0h167.110297l8.910465 107.941684A405.973284 405.973284 0 0 1 739.373178 164.140142l78.943592-67.37562 118.024578 118.962522-69.407831 82.617205a416.994123 416.994123 0 0 1 50.101824 129.827036L1020.05282 436.612778v168.126402l-106.925578 8.988627a415.196397 415.196397 0 0 1-55.729486 127.482177l66.750324 79.490726-118.024578 118.88436-82.070071-70.345775a406.98939 406.98939 0 0 1-128.576445 50.414472z m-138.26853-31.264789h109.426762l7.816197-99.031219 11.88062-2.110373a376.193573 376.193573 0 0 0 138.893825-54.713381l9.770246-6.252958 77.536677 66.125029 77.536676-78.161972-63.780169-75.895276 6.878254-9.848408a384.713228 384.713228 0 0 0 60.184718-137.486909l2.423021-11.255324 101.610564-8.519655V465.376383l-98.249599-7.816197-2.110373-12.036943a382.993665 382.993665 0 0 0-53.931761-140.691551l-6.096634-9.613922 65.577895-78.161973-77.458515-78.161972L741.249065 203.221128l-9.926571-7.034577a376.662545 376.662545 0 0 0-136.314479-60.575529l-11.255324-2.501183L575.38936 31.264789h-109.426762l-7.816197 99.031219-11.88062 2.110373a376.037249 376.037249 0 0 0-138.893825 54.713381l-9.770246 6.33112-77.927487-66.515839-77.458514 78.161972 63.702007 75.895276L199.352111 290.762537a382.993665 382.993665 0 0 0-60.106557 137.48691L136.822533 439.504771 35.211969 447.946264v110.599191l98.327761 8.285169 2.032211 11.567972a382.993665 382.993665 0 0 0 53.931761 140.69155l6.096634 9.692084-65.577895 78.161973 77.458515 78.161972 75.269979-64.405465 9.926571 7.034577a375.177467 375.177467 0 0 0 136.314479 60.653691l11.255324 2.501183z" p-id="23944" ></path><path d="M512.39081 223.777727a282.94634 282.94634 0 0 1 114.898099 24.464697 289.199298 289.199298 0 0 1 146.319213 379.945348 286.150981 286.150981 0 0 1-261.998932 171.956339 282.790016 282.790016 0 0 1-114.898099-24.386535 289.199298 289.199298 0 0 1-146.319213-379.945348 286.229143 286.229143 0 0 1 261.998932-171.956339z m0-31.264789A317.493932 317.493932 0 0 0 221.706435 382.993665a320.464087 320.464087 0 0 0 162.342416 421.293031A311.709946 311.709946 0 0 0 512 831.4089a319.682467 319.682467 0 0 0 127.951149-611.695596 311.788108 311.788108 0 0 0-127.560339-27.200366z" p-id="23945" ></path><path d="M449.470422 690.092054v-68.860698l15.632395-63.389359-29.232578-14.459965-5.002366-47.444317 52.368521-55.416839 33.765972 6.33112-27.35669-17.742768 8.285169-33.609648 40.175254-4.689718-4.533395-27.7475 73.159607-24.621022 36.423479 34.234944 67.844592 7.816197c6.800092-0.547134 36.188993-2.735669 68.548049-4.924204l2.188536 31.264789c-36.892451 2.501183-69.876803 5.002366-69.876804 5.002366h-1.485077L629.242959 402.768644l-30.326846-28.52912-30.170521 10.239218 5.471338 34.000458-37.830395 4.220747 24.308374 16.179528-24.386536 80.428669-26.96588-41.972979-15.632395-2.970155-30.952141 32.593543 1.641402 15.632394 36.345317 17.977254L480.188077 625.295779v28.607282h2.110373l77.458515-75.895275-16.101366-16.414015 17.117472-73.706739 46.897183 47.444317 43.692543-23.448592 5.783986 60.810015 46.897183-8.597817 2.423021 45.333944 50.023663-42.051142 44.708648-26.340584 15.632394 27.044042-42.989085 24.855507-94.419662 80.272346-3.908099-72.768796-45.802916 8.363331-4.611556-47.835127-20.243951 10.864514-18.758873-14.772613-7.816197-7.816197-0.468972 1.797725 26.027937 26.496909L497.149225 682.510343zM273.371498 454.902679L244.764216 422.074651l-25.246317-23.448592 21.650867-22.58881L261.881688 395.265094a18.368064 18.368064 0 0 1 3.048317-4.37707l16.414015-17.742768a20.243951 20.243951 0 0 1 21.103732-5.315014L332.227464 377.913136l64.092817-21.103732-4.377071-15.632395-8.207007 5.783986a20.165789 20.165789 0 0 1-19.384169 2.110374 20.478437 20.478437 0 0 1-11.958782-15.632395l-5.393176-37.361423a20.165789 20.165789 0 0 1 7.347226-18.524387l43.927028-34.156782 15.085261-31.264789L441.654225 226.044424l-18.289902 37.595909-44.239676 34.391268 1.797725 12.740401L410.389436 289.980917l24.386535 87.228762L332.227464 410.819327l-33.297001-11.099-7.269063 7.816197 8.441493 33.140676zM247.030914 681.259751v-70.892909l26.340584-58.934127-3.673612-60.262881 69.564155-63.936493 56.27662 126.856881z m54.71338-177.115029l2.891993 48.225937a21.025571 21.025571 0 0 1-1.875887 9.770246l-21.80719 48.773071 76.520571-65.421571-29.154416-65.734219zM457.286619 356.418594l-3.517288-110.286543 15.241584-0.859782c7.816197-0.468972 15.632394-0.703458 23.448592-0.703457a246.913671 246.913671 0 0 1 76.755057 10.082894l20.322113 6.643768-53.306466 73.550416z m28.763606-80.506832l1.250592 39.940768 30.014197-8.285169 20.634761-28.294634a287.245248 287.245248 0 0 0-51.821388-3.360965z" p-id="23946" ></path></svg>