<?xml version="1.0" standalone="no"?><!DOCTYPE svg PUBLIC "-//W3C//DTD SVG 1.1//EN" "http://www.w3.org/Graphics/SVG/1.1/DTD/svg11.dtd"><svg t="1650530718840" class="icon" viewBox="0 0 1024 1024" version="1.1" xmlns="http://www.w3.org/2000/svg" p-id="9833" xmlns:xlink="http://www.w3.org/1999/xlink" width="200" height="200"><defs><style type="text/css">@font-face { font-family: feedback-iconfont; src: url("//at.alicdn.com/t/font_1031158_u69w8yhxdu.woff2?t=1630033759944") format("woff2"), url("//at.alicdn.com/t/font_1031158_u69w8yhxdu.woff?t=1630033759944") format("woff"), url("//at.alicdn.com/t/font_1031158_u69w8yhxdu.ttf?t=1630033759944") format("truetype"); }
</style></defs><path d="M666.006 771.98c0 1.1-0.9 2-2 2H252.571c-1.1 0-2-0.9-2-2v-69.195c0-1.1 0.9-2 2-2h411.435c1.1 0 2 0.9 2 2v69.195zM647.707 567.693c0 1.1-0.9 2-2 2H252.571c-1.1 0-2-0.9-2-2V498.5c0-1.1 0.9-2 2-2h393.136c1.1 0 2 0.9 2 2v69.193zM501.319 363.425c0 1.1-0.9 2-2 2H252.571c-1.1 0-2-0.9-2-2v-69.194c0-1.1 0.9-2 2-2h246.748c1.1 0 2 0.9 2 2v69.194z" fill="#F29600" p-id="9834"></path><path d="M742.186 879.808c0 1.1-0.9 2-2 2H167.154c-1.1 0-2-0.9-2-2v-700.55c0-1.1 0.9-2 2-2h340.117c1.1 0 2.145-0.888 2.322-1.974l15.808-69.305c0.317-1.053-0.323-1.915-1.423-1.915H91.119c-1.1 0-2 0.9-2 2V953c0 1.1 0.9 2 2 2h725.12c1.1 0 2-0.9 2-2V522.856c0-1.1-0.898-2.061-1.995-2.136l-72.093-8.91c-1.08-0.205-1.965 0.528-1.965 1.628v366.37z" fill="#F29600" p-id="9835"></path><path d="M596.512 418.784c-25.77 0-46.748-20.961-46.748-46.747 0-24.946 19.657-45.389 44.281-46.675V209.691c0-62.061 45.782-111.472 109.667-119.423 8.272-14.295 23.569-23.266 40.402-23.266s32.13 8.971 40.423 23.266c63.865 7.952 109.646 57.362 109.646 119.423v115.671c24.625 1.286 44.282 21.729 44.282 46.675 0 25.786-20.979 46.747-46.747 46.747H596.512z m274.3-49.213c-15.297-7.666-25.841-23.534-25.841-41.815V209.691c0-41.333-33.111-71.335-78.716-71.335h-44.281c-45.603 0-78.715 30.003-78.715 71.335v118.064c0 18.282-10.544 34.15-25.84 41.815h253.393z" fill="#F29600" p-id="9836"></path><path d="M891.719 408.956H596.512c-20.337 0-36.884-16.565-36.884-36.919 0-20.335 16.547-36.883 36.884-36.883 4.074 0 7.398-3.324 7.398-7.398V209.691c0-59.345 44.853-104.949 106.181-110.203 5.575-13.295 18.728-22.641 34.023-22.641 15.297 0 28.449 9.346 34.042 22.641 61.312 5.253 106.165 50.857 106.165 110.203v118.064c0 4.075 3.323 7.398 7.397 7.398 20.335 0 36.882 16.548 36.882 36.883 0.001 20.355-16.546 36.92-36.881 36.92zM721.974 128.509c-51.321 0-88.563 34.13-88.563 81.182v118.064c0 20.354-16.565 36.92-36.899 36.92-4.058 0-7.381 3.306-7.381 7.362 0 4.074 3.323 7.398 7.381 7.398h295.207c4.057 0 7.38-3.324 7.38-7.398 0-4.056-3.323-7.362-7.38-7.362-20.336 0-36.901-16.565-36.901-36.92V209.691c0-47.051-37.241-81.182-88.563-81.182h-14.777v-14.761c0-4.074-3.289-7.38-7.363-7.38s-7.363 3.306-7.363 7.38v14.761h-14.778z" fill="#F29600" p-id="9837"></path><path d="M744.114 455.704c-40.547 0-68.869-25.304-68.869-61.508v-24.625h137.738v24.625c0 36.204-28.304 61.508-68.869 61.508z" fill="#F29600" p-id="9838"></path><path d="M744.114 445.839c-32.558 0-59.041-19.103-59.041-51.643v-14.761h118.083v14.761c0 32.54-26.482 51.643-59.042 51.643z m-25.553-36.883c5.11 8.792 14.654 14.742 25.554 14.742 10.9 0 20.443-5.95 25.554-14.742h-51.108z" fill="#F29600" p-id="9839"></path></svg>