<?xml version="1.0" standalone="no"?><!DOCTYPE svg PUBLIC "-//W3C//DTD SVG 1.1//EN" "http://www.w3.org/Graphics/SVG/1.1/DTD/svg11.dtd"><svg t="1653616691433" class="icon" viewBox="0 0 1024 1024" version="1.1" xmlns="http://www.w3.org/2000/svg" p-id="4886" xmlns:xlink="http://www.w3.org/1999/xlink" width="64" height="64"><defs><style type="text/css">@font-face { font-family: feedback-iconfont; src: url("//at.alicdn.com/t/font_1031158_u69w8yhxdu.woff2?t=1630033759944") format("woff2"), url("//at.alicdn.com/t/font_1031158_u69w8yhxdu.woff?t=1630033759944") format("woff"), url("//at.alicdn.com/t/font_1031158_u69w8yhxdu.ttf?t=1630033759944") format("truetype"); }
</style></defs><path d="M960.3072 279.808l-417.3312-182.784a19.6608 19.6608 0 0 1-1.4848-0.7168 66.3552 66.3552 0 0 0-28.4672-9.0112h-1.536c-13.4144 0.7168-25.6 7.3728-28.6208 9.0624-0.4608 0.2048-0.8704 0.5632-1.4336 0.6656L65.024 279.808a18.944 18.944 0 0 0-11.7248 17.5104v22.0672c0 7.5776 6.0928 13.6704 13.6704 13.6704h45.0048c6.2464 0 11.6224 3.9936 13.2608 9.984 5.632 21.504 29.5424 20.2752 33.28 20.0192h706.6624c3.7888 0.4096 27.6992 1.5872 33.28-20.0192a13.5168 13.5168 0 0 1 13.2096-9.984h45.0048a13.6704 13.6704 0 0 0 13.7216-13.6704v-20.9408c0-0.6144 0.1024-1.4336 0.2048-2.2016 0.8192-6.7584-3.3792-12.8-10.2912-16.4352z m-30.0032 574.2592H94.9248c-32.0512 0-31.3856 31.3856-31.3856 31.3856v38.8096c0 7.5776 6.0928 13.7216 13.6704 13.7216h870.7072a13.6704 13.6704 0 0 0 13.7216-13.7216v-38.8096c0.0512 0 0.8704-31.3856-31.3344-31.3856zM185.4464 408.9344v353.2288h-35.7888c-26.4192 0-30.1056 25.088-30.5664 29.9008l-0.1024 1.28v15.616c0 7.5776 6.0928 13.7216 13.6704 13.7216h761.344a13.6704 13.6704 0 0 0 13.7216-13.7216v-15.616c0-0.4096 0-0.9216-0.1024-1.28-0.512-4.8128-4.1984-29.9008-30.6176-29.9008h-35.6864V408.9344a13.6704 13.6704 0 0 0-13.7216-13.7216h-87.808a13.6704 13.6704 0 0 0-13.7216 13.7216v353.2288h-69.9904V408.9344a13.6704 13.6704 0 0 0-13.7216-13.7216h-87.1424a13.6704 13.6704 0 0 0-13.6704 13.7216v354.048H484.7616V408.9344a13.6704 13.6704 0 0 0-13.6704-13.7216H383.9488a13.6704 13.6704 0 0 0-13.6704 13.7216v353.2288H300.1856V408.9344a13.6704 13.6704 0 0 0-13.6704-13.7216h-87.04a13.7216 13.7216 0 0 0-14.0288 13.7216z m0 0" fill="#d4237a" p-id="4887"></path></svg>