<?xml version="1.0" standalone="no"?><!DOCTYPE svg PUBLIC "-//W3C//DTD SVG 1.1//EN" "http://www.w3.org/Graphics/SVG/1.1/DTD/svg11.dtd"><svg t="1650527682873" class="icon" viewBox="0 0 1024 1024" version="1.1" xmlns="http://www.w3.org/2000/svg" p-id="6616" xmlns:xlink="http://www.w3.org/1999/xlink" width="200" height="200"><defs><style type="text/css">@font-face { font-family: feedback-iconfont; src: url("//at.alicdn.com/t/font_1031158_u69w8yhxdu.woff2?t=1630033759944") format("woff2"), url("//at.alicdn.com/t/font_1031158_u69w8yhxdu.woff?t=1630033759944") format("woff"), url("//at.alicdn.com/t/font_1031158_u69w8yhxdu.ttf?t=1630033759944") format("truetype"); }
</style></defs><path d="M482.514824 945.392941V491.399529a81.136941 81.136941 0 0 1 39.996235-69.933176l108.423529-63.728941a81.106824 81.106824 0 0 1 82.221177 0l108.423529 63.728941a81.136941 81.136941 0 0 1 39.996235 69.933176V945.392941z" fill="#ed549b" opacity=".15" p-id="6617"></path><path d="M512.030118 980.871529H150.076235a91.286588 91.286588 0 0 1-91.015529-91.015529v-626.447059A117.76 117.76 0 0 1 109.628235 166.701176l157.153883-109.146352a118.332235 118.332235 0 0 1 134.354823 0l157.153883 109.146352a117.820235 117.820235 0 0 1 50.597647 96.707765v459.384471h-70.927059V263.408941a46.863059 46.863059 0 0 0-20.118588-38.430117l-157.153883-109.116236a46.953412 46.953412 0 0 0-53.398588 0L150.136471 224.978824a46.863059 46.863059 0 0 0-20.118589 38.430117v626.447059a20.178824 20.178824 0 0 0 20.088471 20.088471h361.953882v70.927058z" fill="#ed549b" p-id="6618"></path><path d="M875.550118 559.134118a35.478588 35.478588 0 0 1-35.478589-35.478589l2.379295-58.789647a53.037176 53.037176 0 0 0-24.094118-44.574117L499.922824 212.630588a35.478588 35.478588 0 1 1 38.791529-59.422117l318.253176 207.811764a123.783529 123.783529 0 0 1 56.289883 103.996236l-2.379294 58.789647a35.478588 35.478588 0 0 1-35.328 35.328z m-451.97553-99.388236H234.224941a35.478588 35.478588 0 0 1 0-70.957176h189.349647a35.478588 35.478588 0 0 1 0 70.957176z m0 213.323294H234.224941a35.478588 35.478588 0 0 1 0-70.957176h189.349647a35.478588 35.478588 0 0 1 0 70.957176z" fill="#ed549b" p-id="6619"></path><path d="M725.052235 563.440941a35.478588 35.478588 0 0 1-35.478588-35.478588v-40.237177a35.478588 35.478588 0 1 1 70.957177 0v40.297412a35.478588 35.478588 0 0 1-35.478589 35.418353z" fill="#ed549b" p-id="6620"></path><path d="M920.274824 710.535529a6.023529 6.023529 0 0 0-1.234824-1.536 7.981176 7.981176 0 0 0-11.233882 0l-106.977883 106.496-42.164706-41.984 107.038118-106.556235a9.697882 9.697882 0 0 0 1.234824-1.536 7.860706 7.860706 0 0 0-2.800942-10.812235 159.623529 159.623529 0 0 0-193.295058 24.545882 157.997176 157.997176 0 0 0-41.291295 152.907294l-60.235294 58.368a4.788706 4.788706 0 0 0 0.180706 6.806589l105.411765 104.899764a4.848941 4.848941 0 0 0 6.836706 0.180706l60.235294-58.307765a159.623529 159.623529 0 0 0 153.6-41.050353 157.936941 157.936941 0 0 0 24.696471-192.421647z m-56.259765 160.888471a114.808471 114.808471 0 0 1-133.240471 20.781176l-5.451294 5.451295-48.489412 46.682353-49.182117-48.941177 21.232941-19.486118 32.798118-32.647529a113.513412 113.513412 0 0 1 20.871529-132.517647 114.657882 114.657882 0 0 1 89.419294-33.129412l-82.522353 82.100706a19.757176 19.757176 0 0 0 0 28.009412l77.312 76.950588a19.968 19.968 0 0 0 28.129882 0l82.462118-82.070588a113.694118 113.694118 0 0 1-33.340235 88.816941z" fill="#ed549b" p-id="6621"></path></svg>