<?xml version="1.0" standalone="no"?><!DOCTYPE svg PUBLIC "-//W3C//DTD SVG 1.1//EN" "http://www.w3.org/Graphics/SVG/1.1/DTD/svg11.dtd"><svg t="1653616741557" class="icon" viewBox="0 0 1024 1024" version="1.1" xmlns="http://www.w3.org/2000/svg" p-id="5587" xmlns:xlink="http://www.w3.org/1999/xlink" width="64" height="64"><defs><style type="text/css">@font-face { font-family: feedback-iconfont; src: url("//at.alicdn.com/t/font_1031158_u69w8yhxdu.woff2?t=1630033759944") format("woff2"), url("//at.alicdn.com/t/font_1031158_u69w8yhxdu.woff?t=1630033759944") format("woff"), url("//at.alicdn.com/t/font_1031158_u69w8yhxdu.ttf?t=1630033759944") format("truetype"); }
</style></defs><path d="M512 78.769231L157.538462 157.538462v590.76923l354.461538 196.923077 354.461538-196.923077V157.538462l-354.461538-78.769231z m259.938462 614.006154l-259.938462 144.541538-259.938462-144.541538V233.550769l259.938462-57.895384 259.938462 57.895384v459.224616z" fill="#B99F34" p-id="5588"></path><path d="M458.830769 405.267692l-0.787692-107.913846c-40.96 19.692308-68.923077 61.833846-68.529231 110.670769 0.393846 34.264615 14.178462 65.378462 37.021539 87.827693 12.996923 12.996923 28.356923 23.236923 46.473846 29.538461V681.353846c0 10.24 6.301538 20.48 12.996923 27.175385s16.147692 11.027692 26.387692 11.027692c20.48 0 39.778462-18.116923 39.384616-38.203077l0.393846-153.206154c51.987692-14.178462 85.858462-61.833846 85.464615-118.547692-0.393846-34.264615-14.178462-65.378462-37.021538-87.827692-9.846154-9.846154-20.873846-17.723077-33.083077-24.024616l0.787692 107.913846-54.350769 31.113847-55.138462-31.507693z" fill="#B99F34" p-id="5589"></path></svg>