<?xml version="1.0" standalone="no"?><!DOCTYPE svg PUBLIC "-//W3C//DTD SVG 1.1//EN" "http://www.w3.org/Graphics/SVG/1.1/DTD/svg11.dtd"><svg t="1594951260893" class="icon" viewBox="0 0 1024 1024" version="1.1" xmlns="http://www.w3.org/2000/svg" p-id="21351" xmlns:xlink="http://www.w3.org/1999/xlink" width="200" height="200"><defs><style type="text/css"></style></defs><path d="M30.8 1000v-220.4c0-66.4 54-120.4 120.4-120.4h12L209.6 1000H30.8zM295.2 1000L340 659.2h11.6c66.4 0 117.6 53.6 118.8 121.6 0.8 51.2 42.8 92.8 94 92.8H628c22.8 0 41.2 17.2 42.4 38.8 0.4 11.2-3.6 22-11.2 30.4-8 8.4-18.4 12.8-29.6 12.8h-114c-32 0-61.2-18.8-74.8-48l-20.8-40.4c-2.8-5.6-8-8.8-14-8.8-9.2 0-16 7.2-16 16V1000H295.2z"  p-id="21352"></path><path d="M295.6 968l-25.6-246.4 11.2-31.2 8.4-24H211.6l8.4 24 11.2 31.2-26 242.8-41.6-316.8L209.6 1000h81.6L340 659.2z"  p-id="21353"></path><path d="M250.8 641.6c-70.4 0-127.6-57.2-127.6-127.6s57.2-127.6 127.6-127.6 127.6 57.2 127.6 127.6-57.6 127.6-127.6 127.6z m0-242c-63.2 0-114.4 51.2-114.4 114.4s51.2 114.4 114.4 114.4 114.4-51.2 114.4-114.4-51.6-114.4-114.4-114.4z"  p-id="21354"></path><path d="M250.8 615.2c-55.6 0-101.2-45.2-101.2-101.2 0-55.6 45.2-101.2 101.2-101.2 55.6 0 101.2 45.2 101.2 101.2s-45.6 101.2-101.2 101.2z"  p-id="21355"></path><path d="M71.6 862.8h13.2V1000h-13.2zM274.8 728H226.4l-24.4-68.4h97.2L274.8 728z m-39.2-13.2h29.6l14.8-42H220.8l14.8 42z"  p-id="21356"></path><path d="M300.4 1000.8l-13.2-1.6 2.8-21.2L264 728h-26.8L212 970.4l3.6 28.8-13.2 1.6-4-30v-0.8l26.8-255.2H276l27.6 263.2zM171.2 752.8L154.4 628h50.8l22.4 63.6-56.4 61.2z m-1.6-111.2l11.2 81.6 31.6-34.4-16.8-47.2h-26zM333.6 756l-60-64.4L296 628h54.8l-17.2 128z m-44.4-67.2l35.2 38 11.6-84.8h-30l-16.8 46.8z"  p-id="21357"></path><path d="M168.56 634.264l46.952 364.984-13.092 1.68-46.956-364.98zM336.876 634.012l13.08 1.776-49.66 365.048-13.08-1.78z"  p-id="21358"></path><path d="M13.2 1000H0v-220.4C0 696 68 628 151.6 628h198.4c83.6 0 151.6 68 151.6 151.6 0 34.8 28.4 62.8 62.8 62.8h65.2c39.6 0 72 32.4 72 72s-32.4 72-72 72h-114c-44 0-84.4-26-102.8-66l-26-57.2 12-5.6 26 57.2c16.4 35.2 52 58 90.8 58h114c32.4 0 58.4-26.4 58.4-58.4s-26.4-58.4-58.4-58.4H564c-42 0-76.4-34.4-76.4-76.4 0-76-62-138-138-138H151.6c-76 0-138 62-138 138V1000z"  p-id="21359"></path><path d="M487.2 768c-6-70.8-66.4-126.4-137.6-126.4H151.6c-15.2 0-30.4 2.4-44.8 7.6l-4.4-12.8c15.6-5.2 32.4-8 49.2-8h198c78 0 144.4 60.8 150.8 138.8l-13.2 0.8z"  p-id="21360"></path><path d="M954.4 786.4H531.2c-14.8 0-29.2-4.8-41.2-13.6l-2.4-1.6-0.4-3.2c-6-70.8-66.4-126.4-137.6-126.4H151.6c-15.2 0-30.4 2.4-44.8 7.6l-3.6 1.2-2.8-2.4c-16-13.2-25.2-32.8-25.2-53.6V92.8c0-38.4 31.2-69.6 69.6-69.6h809.2c38.4 0 69.6 31.2 69.6 69.6v623.6c0.4 38.8-30.8 70-69.2 70zM500.4 764c9.2 6 20 9.2 30.8 9.2h423.2c31.2 0 56.4-25.2 56.4-56.4v-624c0-31.2-25.2-56.4-56.4-56.4H144.8c-31.2 0-56.4 25.2-56.4 56.4v501.2c0 15.6 6.4 30.4 17.6 40.8 14.8-4.4 30-6.8 45.2-6.8h198c77.6 0.4 143.2 59.6 151.2 136z"  p-id="21361"></path><path d="M1024 182H75.2V92.8c0-38.4 31.2-69.6 69.6-69.6h809.2c38.4 0 69.6 31.2 69.6 69.6v89.2zM88.4 168.8h922.4v-76c0-31.2-25.2-56.4-56.4-56.4H144.8c-31.2 0-56.4 25.2-56.4 56.4v76z"  p-id="21362"></path><path d="M140.8 102.4c0 25.2 18 46 42 50.8H104V92.8C104 70.4 122.4 52 144.8 52h38c-23.6 4.4-42 25.6-42 50.4zM237.2 128c7.2 12.8 20 22.4 35.2 25.2H202c14.8-2.8 27.6-12 35.2-25.2zM237.2 77.2c-7.2-12.8-20.4-22.4-35.2-25.2h70.4c-15.2 2.8-28 12.4-35.2 25.2zM326.4 128c7.2 12.8 20.4 22.4 35.2 25.2H291.2c15.2-2.8 28-12 35.2-25.2zM326.4 77.2c-7.2-12.8-20.4-22.4-35.2-25.2h70.8c-15.2 2.8-28 12.4-35.6 25.2zM995.2 92.8v60.4H380.8c24-4.4 42-25.6 42-50.8 0-25.2-18-46-42-50.4h573.6c22.4 0 40.8 18.4 40.8 40.8z"  p-id="21363"></path><path d="M407.2 908h13.2v92h-13.2zM1024 182H75.2V92.8c0-38.4 31.2-69.6 69.6-69.6h809.2c38.4 0 69.6 31.2 69.6 69.6v89.2zM88.4 168.8h922.4v-76c0-31.2-25.2-56.4-56.4-56.4H144.8c-31.2 0-56.4 25.2-56.4 56.4v76z"  p-id="21364"></path><path d="M140.8 102.4c0 25.2 18 46 42 50.8H104V92.8C104 70.4 122.4 52 144.8 52h38c-23.6 4.4-42 25.6-42 50.4zM237.2 128c7.2 12.8 20 22.4 35.2 25.2H202c14.8-2.8 27.6-12 35.2-25.2zM237.2 77.2c-7.2-12.8-20.4-22.4-35.2-25.2h70.4c-15.2 2.8-28 12.4-35.2 25.2zM326.4 128c7.2 12.8 20.4 22.4 35.2 25.2H291.2c15.2-2.8 28-12 35.2-25.2zM326.4 77.2c-7.2-12.8-20.4-22.4-35.2-25.2h70.8c-15.2 2.8-28 12.4-35.6 25.2zM995.2 92.8v60.4H380.8c24-4.4 42-25.6 42-50.8 0-25.2-18-46-42-50.4h573.6c22.4 0 40.8 18.4 40.8 40.8z"  p-id="21365"></path><path d="M192.4 138.4c-20 0-36-16-36-36s16-36 36-36 36 16 36 36-16.4 36-36 36z m0-58.4c-12.4 0-22.8 10-22.8 22.8 0 12.4 10 22.8 22.8 22.8s22.8-10 22.8-22.8c-0.4-12.8-10.4-22.8-22.8-22.8zM282 138.4c-20 0-36-16-36-36s16-36 36-36 36 16 36 36c-0.4 20-16.4 36-36 36z m0-58.4c-12.4 0-22.8 10-22.8 22.8 0 12.4 10 22.8 22.8 22.8 12.4 0 22.8-10 22.8-22.8-0.4-12.8-10.4-22.8-22.8-22.8zM371.2 138.4c-20 0-36-16-36-36s16-36 36-36 36 16 36 36-16 36-36 36z m0-58.4c-12.4 0-22.8 10-22.8 22.8 0 12.4 10 22.8 22.8 22.8 12.4 0 22.8-10 22.8-22.8S383.6 80 371.2 80zM774.4 660.4L686.8 480l2-3.2 103.6-167.2 5.6 3.6c58.4 36.4 93.2 98.8 93.2 167.2 0 76-42.4 143.6-110.8 176.8l-6 3.2z m-72.4-179.6l78.4 161.6c60-32 97.2-93.6 97.2-162 0-61.6-30.4-118-81.2-152.4l-94.4 152.8z"  p-id="21366"></path><path d="M719.6 481.6l81.2-131.2c38.8 31.6 61.2 78.8 61.2 129.6 0 57.2-28.4 109.2-75.2 140l-67.2-138.4z"  p-id="21367"></path><path d="M694.4 487.2h-190l-6.8-6.8c0-108.4 88.4-196.8 196.8-196.8 36.8 0 72.4 10.4 103.6 29.6l2 9.2-100 161.6-5.6 3.2z m-183.2-13.2h179.6l94.8-152.8c-27.6-16-58.8-24-90.8-24-99.2 0-180 78.4-183.6 176.8z"  p-id="21368"></path><path d="M528 458.4c10.8-82 81.2-145.6 166.4-145.6 24 0 47.2 5.2 68.8 14.8l-81.2 130.8H528z"  p-id="21369"></path><path d="M694.4 677.2c-108.4 0-196.8-88.4-196.8-196.8l6.8-6.8h190l4 4h2l83.2 171.2-3.2 8.8c-26.8 13.2-56 19.6-86 19.6z m-183.2-190c3.6 98 84.4 176.8 183.2 176.8v4-4c26 0 50.8-5.2 74.4-15.6l-78.4-161.2h-179.2z"  p-id="21370"></path><path d="M672.4 646.8c-74.8-10-134.4-69.2-144.4-144.4h152.4l66.8 137.2c-14 4.8-28.8 7.6-44 8.4l-30.8-1.2z"  p-id="21371"></path></svg>