<?xml version="1.0" standalone="no"?><!DOCTYPE svg PUBLIC "-//W3C//DTD SVG 1.1//EN" "http://www.w3.org/Graphics/SVG/1.1/DTD/svg11.dtd"><svg t="1594949322984" class="icon" viewBox="0 0 1024 1024" version="1.1" xmlns="http://www.w3.org/2000/svg" p-id="4314" xmlns:xlink="http://www.w3.org/1999/xlink" width="200" height="200"><defs><style type="text/css"></style></defs><path d="M512 85.333333H256c-46.933333 0-85.333333 38.4-85.333333 85.333334v768h426.666666V170.666667c0-46.933333-38.4-85.333333-85.333333-85.333334zM341.333333 810.666667H256v-85.333334h85.333333v85.333334z m0-170.666667H256v-85.333333h85.333333v85.333333z m0-170.666667H256V384h85.333333v85.333333z m0-170.666666H256V213.333333h85.333333v85.333334z m170.666667 512h-85.333333v-85.333334h85.333333v85.333334z m0-170.666667h-85.333333v-85.333333h85.333333v85.333333z m0-170.666667h-85.333333V384h85.333333v85.333333z m0-170.666666h-85.333333V213.333333h85.333333v85.333334zM768 256h-85.333333c-46.933333 0-85.333333 38.4-85.333334 85.333333v597.333334h256V341.333333c0-46.933333-38.4-85.333333-85.333333-85.333333z m0 554.666667h-85.333333v-85.333334h85.333333v85.333334z m0-170.666667h-85.333333v-85.333333h85.333333v85.333333z m0-170.666667h-85.333333V384h85.333333v85.333333z"  p-id="4315"></path></svg>