<?xml version="1.0" standalone="no"?><!DOCTYPE svg PUBLIC "-//W3C//DTD SVG 1.1//EN" "http://www.w3.org/Graphics/SVG/1.1/DTD/svg11.dtd"><svg t="1594952102559" class="icon" viewBox="0 0 1024 1024" version="1.1" xmlns="http://www.w3.org/2000/svg" p-id="2616" xmlns:xlink="http://www.w3.org/1999/xlink" width="200" height="200"><defs><style type="text/css"></style></defs><path d="M226.688 674.1248c0 155.264 127.744 281.0112 285.312 281.0112s285.312-125.7472 285.312-281.0112c0-199.0656-221.44-328.2944-239.3088-549.8624L558.0032 115.0208c0-25.472-20.608-46.1568-46.0032-46.1568-25.3952 0-46.0288 20.6848-46.0288 46.1568l0 9.2416C447.5648 345.8304 226.688 475.0592 226.688 674.1248zM551.5776 788.9664c39.7568-9.2416 71.424-43.1872 80.64-80.3072 3.1232-17.3568 18.2272-30.464 36.2752-30.464 20.2496 0 36.8128 16.6144 36.8128 36.9152 0 26.5728-22.272 67.0208-52.6336 97.3056-29.824 29.5424-65.3568 50.4064-94.6176 50.4064-20.2496 0-36.8128-17.1776-36.8128-37.4784C521.216 807.2448 534.272 792.0896 551.5776 788.9664z" p-id="2617" ></path></svg>